<svg width="100" height="100" class="hidden">
    <symbol fill="none" xmlns="http://www.w3.org/2000/svg" viewBox="0 0 52 53" id="instagram">
        <path d="M51.42 26.248c0 3.612-.073 7.235.02 10.847.155 6.394-3.848 11.334-8.948 13.535-2.049.882-4.2 1.349-6.425 1.349-6.962.01-13.934.104-20.896-.031-5.245-.104-9.56-2.304-12.652-6.643-1.624-2.283-2.4-4.878-2.4-7.691V15.298C.119 9.226 3.067 4.981 8.3 2.22 10.577 1.026 13.05.518 15.626.508c6.755 0 13.52-.042 20.276.02 5.245.042 9.62 2.055 12.848 6.29 1.8 2.367 2.67 5.086 2.67 8.075v11.355zm-47.484 0v11.418c0 1.702.393 3.3 1.272 4.743 2.307 3.789 5.793 5.636 10.118 5.709 6.941.104 13.893.041 20.845.02 1.707 0 3.362-.352 4.903-1.09 4.2-2.013 6.549-5.22 6.528-10.036-.041-7.37-.01-14.739-.01-22.108 0-2.086-.59-3.996-1.821-5.678-2.38-3.228-5.67-4.816-9.6-4.857-6.931-.083-13.863-.031-20.794-.021-1.479 0-2.907.3-4.293.82C7.277 6.59 3.74 10.19 3.904 15.495c.125 3.592.032 7.173.032 10.754z" fill="#212121"></path>
        <path d="M25.826 37.25c-6.673 0-12.052-5.334-12.062-11.977-.01-6.54 5.41-11.895 12.041-11.895 6.652-.01 12.052 5.335 12.062 11.926 0 6.58-5.39 11.936-12.041 11.947zm0-3.84c4.541 0 8.224-3.643 8.214-8.127-.01-4.442-3.693-8.075-8.214-8.075-4.542 0-8.245 3.622-8.245 8.096.01 4.484 3.703 8.117 8.245 8.106zM39.264 9.745c1.396 0 2.534 1.194 2.534 2.657-.01 1.464-1.158 2.647-2.555 2.637-1.376-.01-2.503-1.194-2.503-2.626-.01-1.464 1.127-2.668 2.524-2.668z" fill="#212121"></path>
    </symbol>
    <symbol fill="none" xmlns="http://www.w3.org/2000/svg" viewBox="0 0 55 46" id="telegram">
        <path d="M49.795 1.505L2.663 19.703c-1.896.847-2.538 2.544-.458 3.465l12.091 3.847 29.235-18.09c1.596-1.135 3.23-.833 1.825.417l-25.11 22.762-.788 9.633c.73 1.487 2.068 1.494 2.921.755l6.947-6.581 11.897 8.92c2.764 1.638 4.267.58 4.862-2.421l7.803-36.997c.81-3.695-.571-5.324-4.093-3.908z" fill="#212121"></path>
    </symbol>
    <symbol fill="none" xmlns="http://www.w3.org/2000/svg" viewBox="0 0 57 33" id="vk">
        <path d="M56.227 29.338a3.943 3.943 0 00-.191-.37c-.981-1.78-2.855-3.963-5.622-6.552l-.058-.06-.03-.029-.029-.03h-.03c-1.255-1.205-2.05-2.016-2.383-2.43-.61-.791-.746-1.592-.413-2.402.235-.613 1.119-1.907 2.649-3.884a217.129 217.129 0 001.913-2.52c3.394-4.545 4.866-7.45 4.414-8.715l-.175-.296c-.118-.178-.422-.34-.912-.489-.49-.148-1.118-.173-1.884-.074L45 1.547c-.137-.05-.333-.045-.589.014l-.382.09-.148.073-.117.09a1.314 1.314 0 00-.324.31 2.037 2.037 0 00-.293.52 48.556 48.556 0 01-3.15 6.67 63.206 63.206 0 01-2.002 3.187c-.608.899-1.118 1.56-1.53 1.986-.412.424-.784.765-1.118 1.022-.334.257-.589.366-.765.326-.177-.04-.343-.079-.501-.118a1.966 1.966 0 01-.662-.727c-.167-.306-.28-.691-.338-1.156a12.821 12.821 0 01-.104-1.2c-.009-.336-.005-.811.015-1.424.02-.613.03-1.027.03-1.245 0-.751.014-1.566.044-2.446.03-.88.053-1.576.073-2.09.02-.513.03-1.057.03-1.63s-.035-1.023-.103-1.349a4.636 4.636 0 00-.309-.949 1.594 1.594 0 00-.603-.711 3.387 3.387 0 00-.986-.4c-1.04-.238-2.364-.366-3.973-.386-3.65-.04-5.994.198-7.034.712a3.968 3.968 0 00-1.119.889c-.353.435-.402.672-.147.711 1.177.178 2.01.603 2.501 1.275l.177.356c.138.257.275.712.412 1.364.138.652.226 1.373.265 2.163.098 1.443.098 2.679 0 3.706a44.474 44.474 0 01-.28 2.402c-.088.573-.22 1.037-.397 1.393-.177.356-.294.573-.353.652a.508.508 0 01-.147.148c-.255.098-.52.149-.795.149s-.608-.139-1-.416c-.393-.276-.8-.657-1.222-1.141-.422-.484-.898-1.161-1.427-2.03a35.492 35.492 0 01-1.648-3.084l-.471-.86a74.043 74.043 0 01-1.207-2.416A46.726 46.726 0 0111.95 2.91c-.156-.415-.392-.731-.706-.949l-.147-.089a2.01 2.01 0 00-.47-.252 3.106 3.106 0 00-.678-.193l-8.064.06c-.824 0-1.383.187-1.678.563l-.117.178C.029 2.326 0 2.484 0 2.7c0 .218.059.485.177.8a98.152 98.152 0 003.84 8.064c1.383 2.59 2.585 4.675 3.605 6.255a73.843 73.843 0 003.12 4.476c1.06 1.404 1.761 2.303 2.104 2.698.344.396.614.692.81.89l.736.71c.47.475 1.162 1.043 2.075 1.705a35.386 35.386 0 003.031 1.958c1.109.641 2.399 1.165 3.87 1.57 1.472.406 2.904.568 4.297.49h3.385c.686-.06 1.207-.277 1.56-.652l.117-.149c.079-.118.153-.301.22-.548.07-.247.104-.519.104-.815-.02-.85.044-1.615.19-2.297.147-.682.315-1.196.502-1.542.186-.346.397-.637.632-.874s.403-.38.501-.43c.098-.05.176-.084.235-.104.47-.158 1.025-.005 1.663.46a9.801 9.801 0 011.796 1.72 52.6 52.6 0 002.016 2.297c.785.85 1.471 1.482 2.06 1.897l.588.356c.393.238.903.455 1.531.652.627.198 1.176.247 1.648.149l7.534-.119c.745 0 1.325-.124 1.736-.37.412-.248.657-.52.736-.816.079-.296.083-.632.015-1.008-.07-.375-.138-.637-.207-.786z" fill="#212121"></path>
    </symbol>
</svg>