<svg width="0" height="0" class="hidden">
    <symbol fill="none" xmlns="http://www.w3.org/2000/svg" viewBox="0 0 69 69" id="food-del">
        <path d="M22.6406 42.0469H65.7656V46.3594H22.6406V42.0469Z" fill="#3DC285"></path>
        <path d="M35.5781 9.70312H52.8281C56.2594 9.70313 59.5501 11.0662 61.9763 13.4924C64.4026 15.9187 65.7656 19.2094 65.7656 22.6406V24.7969C65.7656 25.3687 65.5385 25.9172 65.1341 26.3216C64.7297 26.7259 64.1812 26.9531 63.6094 26.9531H24.7969C24.225 26.9531 23.6766 26.7259 23.2722 26.3216C22.8678 25.9172 22.6406 25.3687 22.6406 24.7969V22.6406C22.6406 19.2094 24.0037 15.9187 26.4299 13.4924C28.8562 11.0662 32.1469 9.70313 35.5781 9.70312Z" fill="#D49073"></path>
        <path d="M24.7969 59.2969H63.6094C64.8002 59.2969 65.7656 58.3315 65.7656 57.1406V52.8281C65.7656 51.6373 64.8002 50.6719 63.6094 50.6719H24.7969C23.606 50.6719 22.6406 51.6373 22.6406 52.8281V57.1406C22.6406 58.3315 23.606 59.2969 24.7969 59.2969Z" fill="#D49073"></path>
        <path d="M24.7969 42.0469H63.6094C64.8002 42.0469 65.7656 41.0815 65.7656 39.8906V37.7344C65.7656 36.5435 64.8002 35.5781 63.6094 35.5781H24.7969C23.606 35.5781 22.6406 36.5435 22.6406 37.7344V39.8906C22.6406 41.0815 23.606 42.0469 24.7969 42.0469Z" fill="#B37A60"></path>
        <path d="M24.7969 26.9531H63.6094C64.1812 26.9531 64.7297 27.1803 65.1341 27.5847C65.5385 27.9891 65.7656 28.5375 65.7656 29.1094C65.7656 29.6812 65.5385 30.2297 65.1341 30.6341C64.7297 31.0384 64.1812 31.2656 63.6094 31.2656H24.7969C24.225 31.2656 23.6766 31.0384 23.2722 30.6341C22.8678 30.2297 22.6406 29.6812 22.6406 29.1094C22.6406 28.5375 22.8678 27.9891 23.2722 27.5847C23.6766 27.1803 24.225 26.9531 24.7969 26.9531Z" fill="#EB423F"></path>
        <path d="M24.7969 46.3594H63.6094C64.1812 46.3594 64.7297 46.5865 65.1341 46.9909C65.5385 47.3953 65.7656 47.9438 65.7656 48.5156C65.7656 49.0875 65.5385 49.636 65.1341 50.0403C64.7297 50.4447 64.1812 50.6719 63.6094 50.6719H24.7969C24.225 50.6719 23.6766 50.4447 23.2722 50.0403C22.8678 49.636 22.6406 49.0875 22.6406 48.5156C22.6406 47.9438 22.8678 47.3953 23.2722 46.9909C23.6766 46.5865 24.225 46.3594 24.7969 46.3594Z" fill="#EBA72E"></path>
        <path d="M22.6406 31.2656H65.7656V35.5781H22.6406V31.2656Z" fill="#FFB632"></path>
        <path d="M65.7656 35.5781H48.5156L57.1406 42.0469L65.7656 35.5781Z" fill="#FFB632"></path>
        <path d="M3.23438 20.4844H9.70312V33.4219H3.23438V20.4844Z" fill="#EBA72E"></path>
        <path d="M9.70312 14.0156H16.1719V33.4219H9.70312V14.0156Z" fill="#FFB632"></path>
        <path d="M22.6406 14.0156H29.1094V33.4219H22.6406V14.0156Z" fill="#FFB632"></path>
        <path d="M16.1719 20.4844H22.6406V33.4219H16.1719V20.4844Z" fill="#EBA72E"></path>
        <path d="M29.1094 20.4844H35.5781V33.4219H29.1094V20.4844Z" fill="#EBA72E"></path>
        <path d="M32.3438 59.2969H6.46875L3.23438 33.4219H35.5781L32.3438 59.2969Z" fill="#ED6F6D"></path>
        <path d="M25.875 33.4219C25.875 35.1375 25.1935 36.7828 23.9803 37.996C22.7672 39.2091 21.1219 39.8906 19.4062 39.8906C17.6906 39.8906 16.0453 39.2091 14.8322 37.996C13.619 36.7828 12.9375 35.1375 12.9375 33.4219H25.875Z" fill="#EB423F"></path>
        <path d="M34.5 59.2969C39.2635 59.2969 43.125 55.4353 43.125 50.6719C43.125 45.9084 39.2635 42.0469 34.5 42.0469C29.7365 42.0469 25.875 45.9084 25.875 50.6719C25.875 55.4353 29.7365 59.2969 34.5 59.2969Z" fill="#EB423F"></path>
        <path d="M52.8281 8.625H35.5781C33.6893 8.62653 31.8201 9.00927 30.0827 9.75028C28.3452 10.4913 26.7752 11.5753 25.4667 12.9375H22.6406C22.3547 12.9375 22.0805 13.0511 21.8783 13.2533C21.6761 13.4555 21.5625 13.7297 21.5625 14.0156V19.4062H17.25V14.0156C17.25 13.7297 17.1364 13.4555 16.9342 13.2533C16.732 13.0511 16.4578 12.9375 16.1719 12.9375H9.70312C9.41719 12.9375 9.14296 13.0511 8.94078 13.2533C8.73859 13.4555 8.625 13.7297 8.625 14.0156V19.4062H3.23438C2.94844 19.4062 2.67421 19.5198 2.47203 19.722C2.26984 19.9242 2.15625 20.1984 2.15625 20.4844V33.4219H2.15706C2.15678 33.4665 2.15925 33.5112 2.16447 33.5556L5.39885 59.4306C5.43143 59.6913 5.55815 59.9312 5.75517 60.1051C5.95219 60.2791 6.20595 60.375 6.46875 60.375H63.6094C64.4669 60.374 65.289 60.0329 65.8953 59.4266C66.5017 58.8202 66.8428 57.9981 66.8438 57.1406V52.8281C66.8443 52.033 66.5507 51.2657 66.0194 50.674C66.4453 50.1982 66.7208 49.6071 66.8112 48.975C66.9017 48.3429 66.803 47.6981 66.5276 47.122C66.628 47.022 66.7076 46.9031 66.7618 46.7723C66.8161 46.6414 66.8439 46.5011 66.8438 46.3594V42.0469C66.8439 41.9052 66.8161 41.7649 66.7618 41.634C66.7076 41.5031 66.628 41.3842 66.5276 41.2842C66.7362 40.8493 66.8443 40.373 66.8438 39.8906V37.7344C66.8433 37.2522 66.7351 36.7762 66.527 36.3413C66.6276 36.2413 66.7073 36.1223 66.7617 35.9914C66.816 35.8604 66.8439 35.7199 66.8438 35.5781V31.2656C66.8439 31.1243 66.8162 30.9844 66.7622 30.8538C66.7082 30.7232 66.629 30.6045 66.5291 30.5046C66.8037 29.9282 66.9016 29.2833 66.8105 28.6514C66.7193 28.0194 66.4432 27.4285 66.017 26.9531C66.5496 26.3613 66.8442 25.5931 66.8438 24.7969V22.6406C66.8395 18.9247 65.3615 15.3623 62.734 12.7347C60.1065 10.1072 56.544 8.62921 52.8281 8.625ZM28.0312 15.0938V32.3438H23.7188V15.0938H28.0312ZM30.1875 21.5625H34.5V32.3438H30.1875V21.5625ZM36.6562 28.0312H63.6094C63.8953 28.0312 64.1695 28.1448 64.3717 28.347C64.5739 28.5492 64.6875 28.8234 64.6875 29.1094C64.6875 29.3953 64.5739 29.6695 64.3717 29.8717C64.1695 30.0739 63.8953 30.1875 63.6094 30.1875H36.6562V28.0312ZM44.1421 49.5938C44.0603 48.8586 43.8948 48.1351 43.6488 47.4375H63.6094C63.8953 47.4375 64.1695 47.5511 64.3717 47.7533C64.5739 47.9555 64.6875 48.2297 64.6875 48.5156C64.6875 48.8016 64.5739 49.0758 64.3717 49.278C64.1695 49.4802 63.8953 49.5938 63.6094 49.5938H44.1421ZM34.5 58.2188C33.0066 58.2193 31.5467 57.7769 30.3048 56.9475C29.0629 56.1182 28.0949 54.9391 27.5232 53.5595C26.9514 52.18 26.8017 50.6618 27.0929 49.1971C27.3842 47.7324 28.1032 46.387 29.1592 45.3311C30.2151 44.2751 31.5606 43.556 33.0252 43.2648C34.4899 42.9736 36.0081 43.1233 37.3877 43.695C38.7672 44.2668 39.9463 45.2348 40.7756 46.4767C41.605 47.7186 42.0474 49.1785 42.0469 50.6719C42.0446 52.6727 41.2488 54.591 39.834 56.0058C38.4191 57.4207 36.5009 58.2165 34.5 58.2188ZM36.2603 36.6562H48.1562L53.9062 40.9688H35.7212L36.2603 36.6562ZM60.6908 44.9655C60.7941 45.0689 60.8998 45.1745 61.0087 45.2812H53.2729C53.3819 45.1745 53.4877 45.0687 53.591 44.9652C54.6188 43.9371 55.431 43.125 57.1406 43.125C58.8503 43.125 59.6625 43.9371 60.6908 44.9655ZM42.5691 45.2812C42.0431 44.4964 41.4051 43.7926 40.6754 43.1924C41.8748 43.4048 42.5831 44.1088 43.4394 44.9656C43.5428 45.069 43.6484 45.1747 43.7573 45.2814L42.5691 45.2812ZM44.9641 43.4408C44.8609 43.3374 44.7551 43.2317 44.6464 43.125H52.3834C52.2746 43.2316 52.169 43.3373 52.0658 43.4405C51.0374 44.469 50.2249 45.2812 48.5143 45.2812C46.8037 45.2812 45.9924 44.4692 44.9641 43.4408ZM51.75 36.6562H62.5312L57.1406 40.6992L51.75 36.6562ZM64.6875 45.1509C63.66 44.8827 63.0001 44.2254 62.2155 43.4408C62.1121 43.3374 62.0065 43.2317 61.8976 43.125H63.6094C63.9767 43.1251 64.3413 43.0624 64.6875 42.9396V45.1509ZM63.6094 40.9688H60.375L64.6875 37.7344V39.8906C64.6872 40.1765 64.5735 40.4505 64.3714 40.6526C64.1693 40.8547 63.8952 40.9684 63.6094 40.9688ZM64.6875 32.3438V34.5H36.5298L36.6479 33.5556C36.6532 33.5112 36.6557 33.4666 36.6554 33.4219H36.6562V32.3438H64.6875ZM24.6891 34.5C24.441 35.7179 23.7797 36.8126 22.8171 37.5989C21.8545 38.3851 20.6498 38.8146 19.4069 38.8146C18.164 38.8146 16.9593 38.3851 15.9968 37.5989C15.0342 36.8126 14.3729 35.7179 14.1248 34.5H24.6891ZM21.5625 21.5625V32.3438H17.25V21.5625H21.5625ZM15.0938 15.0938V32.3438H10.7812V15.0938H15.0938ZM8.625 21.5625V32.3438H4.3125V21.5625H8.625ZM7.42046 58.2188L4.45562 34.5H11.9377C12.1966 36.2961 13.0942 37.9388 14.4659 39.1269C15.8376 40.315 17.5915 40.969 19.4062 40.969C21.221 40.969 22.9749 40.315 24.3466 39.1269C25.7183 37.9388 26.6159 36.2961 26.8748 34.5H34.3569L33.5422 41.0166C31.6262 41.2056 29.8098 41.9607 28.3244 43.1856C26.8391 44.4106 25.752 46.05 25.2016 47.895C24.6512 49.7399 24.6625 51.707 25.234 53.5455C25.8055 55.3841 26.9113 57.0109 28.4106 58.2188H7.42046ZM64.6875 57.1406C64.6872 57.4265 64.5735 57.7005 64.3714 57.9026C64.1693 58.1047 63.8952 58.2184 63.6094 58.2188H40.5894C42.5798 56.615 43.8565 54.2902 44.1418 51.75H63.6094C63.8952 51.7503 64.1693 51.864 64.3714 52.0661C64.5735 52.2682 64.6872 52.5423 64.6875 52.8281V57.1406ZM64.6875 24.7969C64.6872 25.0827 64.5735 25.3568 64.3714 25.5589C64.1693 25.761 63.8952 25.8747 63.6094 25.875H36.6562V20.4844C36.6562 20.1984 36.5427 19.9242 36.3405 19.722C36.1383 19.5198 35.8641 19.4062 35.5781 19.4062H30.1875V14.0156C30.1875 13.7297 30.0739 13.4555 29.8717 13.2533C29.6695 13.0511 29.3953 12.9375 29.1094 12.9375H28.764C30.76 11.5359 33.1392 10.7831 35.5781 10.7812H52.8281C55.9723 10.7848 58.9867 12.0354 61.21 14.2587C63.4333 16.482 64.6839 19.4964 64.6875 22.6406V24.7969Z" fill="black"></path>
        <path d="M34.5 12.9375H36.6562V15.0938H34.5V12.9375Z" fill="black"></path>
        <path d="M38.8125 15.0938H40.9688V17.25H38.8125V15.0938Z" fill="black"></path>
        <path d="M43.125 12.9375H45.2812V15.0938H43.125V12.9375Z" fill="black"></path>
        <path d="M47.4375 15.0938H49.5938V17.25H47.4375V15.0938Z" fill="black"></path>
        <path d="M51.75 12.9375H53.9062V15.0938H51.75V12.9375Z" fill="black"></path>
        <path d="M38.4967 46.6751C38.3966 46.575 38.2778 46.4956 38.1469 46.4414C38.0161 46.3872 37.8759 46.3593 37.7344 46.3593C37.5928 46.3593 37.4526 46.3872 37.3218 46.4414C37.191 46.4956 37.0721 46.575 36.972 46.6751L34.5 49.1471L32.028 46.6751C31.8258 46.4729 31.5515 46.3593 31.2656 46.3593C30.9796 46.3593 30.7054 46.4729 30.5032 46.6751C30.301 46.8773 30.1874 47.1515 30.1874 47.4375C30.1874 47.7234 30.301 47.9977 30.5032 48.1999L32.9752 50.6719L30.5032 53.1439C30.301 53.3461 30.1874 53.6203 30.1874 53.9062C30.1874 54.1922 30.301 54.4664 30.5032 54.6686C30.7054 54.8708 30.9796 54.9844 31.2656 54.9844C31.5515 54.9844 31.8258 54.8708 32.028 54.6686L34.5 52.1966L36.972 54.6686C37.1742 54.8708 37.4484 54.9844 37.7344 54.9844C38.0203 54.9844 38.2945 54.8708 38.4967 54.6686C38.6989 54.4664 38.8125 54.1922 38.8125 53.9062C38.8125 53.6203 38.6989 53.3461 38.4967 53.1439L36.0247 50.6719L38.4967 48.1999C38.5968 48.0997 38.6763 47.9809 38.7304 47.8501C38.7846 47.7193 38.8125 47.5791 38.8125 47.4375C38.8125 47.2959 38.7846 47.1557 38.7304 47.0249C38.6763 46.8941 38.5968 46.7752 38.4967 46.6751Z" fill="black"></path>
    </symbol>
    <symbol fill="none" xmlns="http://www.w3.org/2000/svg" viewBox="0 0 162 16" id="itmo">
        <path d="M5.98466 6.76625C5.98466 7.56238 5.35579 8.20749 4.5797 8.20749C3.80409 8.20749 3.17474 7.56238 3.17474 6.76625C3.17474 5.97062 3.80409 5.32502 4.5797 5.32502C5.35579 5.32502 5.98466 5.97062 5.98466 6.76625Z" fill="#EC1947"></path>
        <path d="M5.51631 10.9027C5.51631 11.4335 5.09706 11.8635 4.57967 11.8635C4.06228 11.8635 3.64303 11.4335 3.64303 10.9027C3.64303 10.372 4.06228 9.94188 4.57967 9.94188C5.09706 9.94188 5.51631 10.372 5.51631 10.9027ZM10.0169 4.69816C10.0169 5.4938 9.3876 6.13939 8.61199 6.13939C7.8359 6.13939 7.20703 5.4938 7.20703 4.69816C7.20703 3.90204 7.8359 3.25693 8.61199 3.25693C9.3876 3.25693 10.0169 3.90204 10.0169 4.69816ZM14.0493 6.76637C14.0493 7.56201 13.4204 8.20761 12.6444 8.20761C11.8687 8.20761 11.2394 7.56201 11.2394 6.76637C11.2394 5.97025 11.8687 5.32514 12.6444 5.32514C13.4204 5.32514 14.0493 5.97025 14.0493 6.76637ZM18.0817 8.83449C18.0817 9.63061 17.4528 10.2757 16.6767 10.2757C15.9006 10.2757 15.2718 9.63061 15.2718 8.83449C15.2718 8.03836 15.9006 7.39325 16.6767 7.39325C17.4528 7.39325 18.0817 8.03836 18.0817 8.83449ZM14.0493 10.9028C14.0493 11.699 13.4204 12.3441 12.6444 12.3441C11.8687 12.3441 11.2394 11.699 11.2394 10.9028C11.2394 10.1067 11.8687 9.46161 12.6444 9.46161C13.4204 9.46161 14.0493 10.1067 14.0493 10.9028ZM22.1138 10.9028C22.1138 11.699 21.4849 12.3441 20.7088 12.3441C19.9327 12.3441 19.3038 11.699 19.3038 10.9028C19.3038 10.1067 19.9327 9.46161 20.7088 9.46161C21.4849 9.46161 22.1138 10.1067 22.1138 10.9028ZM21.6457 15.0392C21.6457 15.5699 21.2265 16 20.7091 16C20.1917 16 19.772 15.5699 19.772 15.0392C19.772 14.5084 20.1917 14.0784 20.7091 14.0784C21.2265 14.0784 21.6457 14.5084 21.6457 15.0392ZM25.6781 12.9709C25.6781 13.5017 25.2588 13.9317 24.7419 13.9317C24.2241 13.9317 23.8048 13.5017 23.8048 12.9709C23.8048 12.4402 24.2241 12.0101 24.7419 12.0101C25.2588 12.0101 25.6781 12.4402 25.6781 12.9709ZM26.1466 8.83449C26.1466 9.63061 25.5172 10.2757 24.7416 10.2757C23.9655 10.2757 23.3367 9.63061 23.3367 8.83449C23.3367 8.03885 23.9655 7.39374 24.7416 7.39374C25.5172 7.39374 26.1466 8.03885 26.1466 8.83449ZM22.114 6.76623C22.114 7.56186 21.4846 8.20746 20.7086 8.20746C19.9329 8.20746 19.3041 7.56186 19.3041 6.76623C19.3041 5.9701 19.9329 5.32499 20.7086 5.32499C21.4846 5.32499 22.114 5.9701 22.114 6.76623ZM17.6136 12.9709C17.6136 13.5017 17.1939 13.9317 16.677 13.9317C16.1596 13.9317 15.7398 13.5017 15.7398 12.9709C15.7398 12.4402 16.1596 12.0101 16.677 12.0101C17.1939 12.0101 17.6136 12.4402 17.6136 12.9709ZM26.1466 4.69801C26.1466 5.49414 25.5177 6.13925 24.7416 6.13925C23.966 6.13925 23.3367 5.49414 23.3367 4.69801C23.3367 3.90189 23.966 3.25678 24.7416 3.25678C25.5177 3.25678 26.1466 3.90189 26.1466 4.69801ZM29.7106 2.6298C29.7106 3.16055 29.2909 3.59062 28.774 3.59062C28.2566 3.59062 27.8374 3.16055 27.8374 2.6298C27.8374 2.09905 28.2566 1.66898 28.774 1.66898C29.2909 1.66898 29.7106 2.09905 29.7106 2.6298ZM29.7106 10.9027C29.7106 11.4335 29.2909 11.8635 28.774 11.8635C28.2566 11.8635 27.8369 11.4335 27.8369 10.9027C27.8369 10.372 28.2566 9.94188 28.774 9.94188C29.2909 9.94188 29.7106 10.372 29.7106 10.9027ZM17.6136 4.69816C17.6136 5.22842 17.1939 5.65898 16.677 5.65898C16.1596 5.65898 15.7398 5.22842 15.7398 4.69816C15.7398 4.16741 16.1596 3.73734 16.677 3.73734C17.1939 3.73734 17.6136 4.16741 17.6136 4.69816ZM13.581 15.0392C13.581 15.5699 13.1618 16 12.6444 16C12.127 16 11.7078 15.5699 11.7078 15.0392C11.7078 14.5084 12.127 14.0784 12.6444 14.0784C13.1618 14.0784 13.581 14.5084 13.581 15.0392ZM10.0169 8.83449C10.0169 9.63061 9.38808 10.2757 8.61199 10.2757C7.8359 10.2757 7.20703 9.63061 7.20703 8.83449C7.20703 8.03885 7.8359 7.39325 8.61199 7.39325C9.38808 7.39325 10.0169 8.03885 10.0169 8.83449ZM1.09481 12.9709C1.09481 13.2813 0.849455 13.5325 0.547406 13.5325C0.244879 13.5325 0 13.2813 0 12.9709C0 12.6606 0.244879 12.4094 0.547406 12.4094C0.849455 12.4094 1.09481 12.6606 1.09481 12.9709ZM1.09481 8.83449C1.09481 9.14482 0.849455 9.39603 0.547406 9.39603C0.244879 9.39603 0 9.14482 0 8.83449C0 8.52415 0.244879 8.27295 0.547406 8.27295C0.849455 8.27295 1.09481 8.52415 1.09481 8.83449ZM9.15949 12.9418C9.15949 13.2522 8.91413 13.5034 8.61209 13.5034C8.30956 13.5034 8.06468 13.2522 8.06468 12.9418C8.06468 12.6315 8.30956 12.3803 8.61209 12.3803C8.91413 12.3803 9.15949 12.6315 9.15949 12.9418ZM9.15949 0.561539C9.15949 0.871876 8.91461 1.12308 8.61209 1.12308C8.30956 1.12308 8.06468 0.871876 8.06468 0.561539C8.06468 0.251202 8.30956 0 8.61209 0C8.91461 0 9.15949 0.251202 9.15949 0.561539ZM5.12737 2.6298C5.12737 2.94014 4.88201 3.19134 4.57996 3.19134C4.27696 3.19134 4.03208 2.94014 4.03208 2.6298C4.03208 2.31946 4.27696 2.06826 4.57996 2.06826C4.88201 2.06826 5.12737 2.31946 5.12737 2.6298ZM13.1919 2.6298C13.1919 2.94014 12.9465 3.19134 12.6444 3.19134C12.3419 3.19134 12.097 2.94014 12.097 2.6298C12.097 2.31946 12.3419 2.06826 12.6444 2.06826C12.9465 2.06826 13.1919 2.31946 13.1919 2.6298ZM37.3864 6.76623C37.3864 7.07656 37.1411 7.32777 36.839 7.32777C36.5365 7.32777 36.2911 7.07656 36.2911 6.76623C36.2911 6.45589 36.5365 6.20469 36.839 6.20469C37.1411 6.20469 37.3864 6.45589 37.3864 6.76623ZM29.3215 15.0392C29.3215 15.3495 29.0766 15.6007 28.774 15.6007C28.4715 15.6007 28.2262 15.3495 28.2262 15.0392C28.2262 14.7288 28.4715 14.4776 28.774 14.4776C29.0766 14.4776 29.3215 14.7288 29.3215 15.0392ZM34.2113 4.69816C34.2113 5.4938 33.5819 6.13891 32.8063 6.13891C32.0302 6.13891 31.4014 5.4938 31.4014 4.69816C31.4014 3.90252 32.0302 3.25693 32.8063 3.25693C33.5819 3.25693 34.2113 3.90252 34.2113 4.69816ZM30.1789 6.76637C30.1789 7.56201 29.5496 8.20712 28.774 8.20712C27.9979 8.20712 27.369 7.56201 27.369 6.76637C27.369 5.97074 27.9979 5.32514 28.774 5.32514C29.5496 5.32514 30.1789 5.97074 30.1789 6.76637ZM33.3538 12.9709C33.3538 13.2813 33.1085 13.5325 32.8064 13.5325C32.5034 13.5325 32.259 13.2813 32.259 12.9709C32.259 12.6606 32.5034 12.4094 32.8064 12.4094C33.1085 12.4094 33.3538 12.6606 33.3538 12.9709ZM33.743 8.83459C33.743 9.36485 33.3238 9.79541 32.8064 9.79541C32.289 9.79541 31.8697 9.36485 31.8697 8.83459C31.8697 8.30384 32.289 7.87376 32.8064 7.87376C33.3238 7.87376 33.743 8.30384 33.743 8.83459ZM21.2563 2.6298C21.2563 2.94014 21.0114 3.19134 20.7094 3.19134C20.4064 3.19134 20.1615 2.94014 20.1615 2.6298C20.1615 2.31946 20.4064 2.06826 20.7094 2.06826C21.0114 2.06826 21.2563 2.31946 21.2563 2.6298ZM33.3538 0.561686C33.3538 0.872023 33.1085 1.12322 32.8064 1.12322C32.5034 1.12322 32.259 0.872023 32.259 0.561686C32.259 0.251349 32.5034 0.000146616 32.8064 0.000146616C33.1085 0.000146616 33.3538 0.251349 33.3538 0.561686ZM37.3862 2.6298C37.3862 2.94014 37.1408 3.19134 36.8388 3.19134C36.5363 3.19134 36.2909 2.94014 36.2909 2.6298C36.2909 2.31946 36.5363 2.06826 36.8388 2.06826C37.1408 2.06826 37.3862 2.31946 37.3862 2.6298ZM48.6725 5.86351L46.7144 10.5582C46.3576 11.4144 46.0127 12.0453 45.6882 12.4329C45.3576 12.8273 44.9307 13.0277 44.4176 13.0277C43.9569 13.0277 43.581 12.947 43.3028 12.7877C42.8788 12.5502 42.7377 12.2281 42.8831 11.8303C43.0131 11.4799 43.2837 11.365 43.6811 11.4985C43.7173 11.5053 43.7849 11.5292 43.8831 11.5693C43.975 11.6069 44.0565 11.6338 44.1256 11.6485C44.1942 11.6631 44.2694 11.671 44.3495 11.671C44.5267 11.671 44.6753 11.5981 44.804 11.4476C44.9331 11.2966 45.0579 11.0635 45.1746 10.7536L42.5353 6.04776C42.409 5.83419 42.3518 5.61427 42.3671 5.39385C42.3828 5.16709 42.4891 4.99555 42.6825 4.88412C42.8916 4.77269 43.0874 4.76047 43.2651 4.84355C43.44 4.92517 43.5929 5.09085 43.7197 5.33618L45.8678 9.29384L47.4252 5.41829C47.6468 4.86701 47.9779 4.66322 48.3947 4.81961C48.5663 4.88754 48.6825 4.9931 48.7406 5.13337C48.8173 5.31712 48.7945 5.56295 48.6725 5.86351ZM50.815 12.9107C50.5825 12.9107 50.4 12.8389 50.2743 12.6966C50.149 12.5559 50.0856 12.3721 50.0856 12.1507V5.53006C50.0856 5.30867 50.149 5.12344 50.2733 4.97878C50.4 4.83217 50.582 4.75837 50.815 4.75837C51.0399 4.75837 51.22 4.83217 51.35 4.97829C51.4791 5.12247 51.5444 5.30818 51.5444 5.53006V8.07433H55.0713V5.53006C55.0713 5.30867 55.1347 5.12296 55.2595 4.97878C55.3858 4.83217 55.5678 4.75837 55.8007 4.75837C56.0261 4.75837 56.2057 4.83217 56.3358 4.97829C56.4649 5.12296 56.5301 5.30867 56.5301 5.53006V12.1507C56.5301 12.3726 56.4644 12.5564 56.3353 12.6971C56.2057 12.8389 56.0256 12.9107 55.8007 12.9107C55.5682 12.9107 55.3862 12.8389 55.26 12.6966C55.1347 12.5559 55.0713 12.3721 55.0713 12.1507V9.41929H51.5444V12.1507C51.5444 12.3726 51.4791 12.5564 51.3495 12.6971C51.22 12.8389 51.0399 12.9107 50.815 12.9107ZM59.2954 12.9107C59.0782 12.9107 58.9057 12.8428 58.7833 12.7089C58.6613 12.5759 58.5998 12.3878 58.5998 12.1507V5.53006C58.5998 5.30867 58.6608 5.12344 58.7818 4.97927C58.9047 4.83266 59.0886 4.75837 59.3292 4.75837C59.5622 4.75837 59.7442 4.83217 59.8709 4.97878C59.9957 5.12344 60.0591 5.30867 60.0591 5.53006V10.275L63.6518 5.17476C63.85 4.89814 64.0844 4.75837 64.3493 4.75837C64.8104 4.75837 65.0444 5.01788 65.0444 5.53006V12.1507C65.0444 12.3721 64.9834 12.5554 64.8624 12.6962C64.7399 12.8389 64.5594 12.9107 64.3269 12.9107C64.0858 12.9107 63.9 12.8364 63.7737 12.6903C63.6489 12.5461 63.5856 12.3643 63.5856 12.1507V7.41554L59.9705 12.4826C59.7566 12.767 59.5298 12.9107 59.2954 12.9107ZM71.5974 8.54595C71.9942 8.69159 72.3134 8.92177 72.5478 9.23162C72.8032 9.56933 72.9328 9.9779 72.9328 10.4461C72.9328 12.1204 71.8565 12.9689 69.7336 12.9689C68.9828 12.9689 68.3291 12.9254 67.7913 12.8398C67.342 12.7744 67.1143 12.507 67.1143 12.0457V5.67032C67.1143 5.20164 67.3453 4.92258 67.8017 4.84096C68.341 4.74713 68.9604 4.69972 69.6421 4.69972C71.5764 4.69972 72.5574 5.42694 72.5574 6.86133C72.5574 7.22641 72.4616 7.57242 72.2715 7.89009C72.1024 8.17403 71.8756 8.39445 71.5974 8.54595ZM71.0338 11.4338C71.3034 11.2495 71.4401 10.9368 71.4401 10.5042C71.4401 9.70373 70.8965 9.31422 69.7789 9.31422H68.5164V11.6527C68.8689 11.6957 69.2972 11.7177 69.7903 11.7177C70.3396 11.7177 70.7584 11.622 71.0338 11.4338ZM69.6312 8.16768C70.5955 8.16768 71.0642 7.78648 71.0642 7.00111C71.0642 6.30272 70.5578 5.96306 69.5168 5.96306C69.1986 5.96306 68.8622 5.98115 68.5164 6.01682V8.16768H69.6312ZM79.8675 12.7285C79.7417 12.8492 79.5716 12.9108 79.3634 12.9108H75.4134C75.1809 12.9108 74.9951 12.837 74.8617 12.6914C74.7283 12.5467 74.6612 12.361 74.6612 12.1391V5.53016C74.6612 5.30828 74.7264 5.12256 74.8555 4.9779C74.9856 4.83226 75.1695 4.75798 75.402 4.75798H79.2496C79.4582 4.75798 79.6278 4.81956 79.7536 4.94027C79.8803 5.06196 79.9446 5.22862 79.9446 5.43681C79.9446 5.63621 79.8803 5.79944 79.7536 5.92113C79.6278 6.04185 79.4582 6.10294 79.2496 6.10294H76.12V8.05097H78.6121C78.8279 8.05097 79.0009 8.11011 79.1271 8.22691C79.2543 8.34469 79.3186 8.50988 79.3186 8.71759C79.3186 8.91698 79.2543 9.08168 79.1281 9.20728C79.0023 9.3324 78.8284 9.39593 78.6121 9.39593H76.12V11.5658H79.3634C79.5716 11.5658 79.7412 11.6274 79.8675 11.7481C79.9947 11.8698 80.0585 12.037 80.0585 12.2442C80.0585 12.4436 79.9947 12.6068 79.8675 12.7285ZM86.9907 7.32825C86.9907 8.24216 86.7016 8.94201 86.1308 9.40873C85.5634 9.87302 84.8145 10.1081 83.905 10.1081C83.5053 10.1081 83.188 10.0915 82.9612 10.0578V12.1509C82.9612 12.3728 82.8954 12.5566 82.7663 12.6973C82.6363 12.8391 82.4562 12.9109 82.2318 12.9109C81.9988 12.9109 81.8168 12.8386 81.6906 12.6968C81.5658 12.5561 81.5019 12.3723 81.5019 12.1509V5.71646C81.5019 5.2336 81.7292 4.94281 82.177 4.8524C82.6782 4.75124 83.2709 4.69992 83.9393 4.69992C84.8783 4.69992 85.6291 4.913 86.1699 5.33428C86.7144 5.758 86.9907 6.42901 86.9907 7.32825ZM82.9612 6.08544V8.75776C83.1746 8.78464 83.4648 8.79832 83.8249 8.79832C84.9274 8.79832 85.4633 8.32915 85.4633 7.36344C85.4633 6.46029 84.9541 6.02142 83.905 6.02142C83.5953 6.02142 83.2775 6.04292 82.9612 6.08544ZM93.4094 11.187C93.8191 10.9476 94.134 10.9837 94.336 11.2828C94.4418 11.4246 94.4732 11.599 94.4289 11.7994C94.3846 11.9964 94.2622 12.1747 94.0645 12.3287C93.4513 12.7925 92.6605 13.0276 91.7138 13.0276C90.5137 13.0276 89.5942 12.6468 88.9806 11.8952C88.3689 11.1465 88.0592 10.1167 88.0592 8.83434C88.0592 7.56709 88.3884 6.54127 89.0383 5.78473C89.6895 5.02624 90.6052 4.64162 91.7596 4.64162C92.6681 4.64162 93.3856 4.82489 93.892 5.18703C94.2455 5.43481 94.3427 5.74123 94.1807 6.09898C94.0421 6.41665 93.7305 6.49142 93.2574 6.3101C91.851 5.75687 90.8077 5.9206 90.174 6.75582C89.7843 7.27044 89.5866 7.96589 89.5866 8.82261C89.5866 9.71013 89.7991 10.4168 90.2183 10.9231C90.6357 11.427 91.1736 11.6826 91.8163 11.6826C92.3289 11.6826 92.8649 11.5159 93.4094 11.187ZM101.765 4.75818C102.226 4.75818 102.46 5.01769 102.46 5.52986V12.1505C102.46 12.3719 102.399 12.5552 102.278 12.696C102.156 12.8387 101.975 12.9105 101.742 12.9105C101.502 12.9105 101.316 12.8367 101.19 12.6901C101.065 12.5459 101.002 12.3646 101.002 12.1505V7.41583L97.3861 12.4824C97.1722 12.7668 96.9454 12.9105 96.7115 12.9105C96.4942 12.9105 96.3217 12.8426 96.1988 12.7087C96.0778 12.5757 96.0159 12.3881 96.0159 12.1505V5.52986C96.0159 5.30896 96.0769 5.12374 96.1979 4.97908C96.3203 4.83246 96.5047 4.75818 96.7453 4.75818C96.9782 4.75818 97.1602 4.83246 97.287 4.97859C97.4118 5.12325 97.4747 5.30896 97.4747 5.52986V10.2753L101.067 5.17505C101.266 4.89844 101.5 4.75818 101.765 4.75818ZM110.531 5.42479C110.531 5.62419 110.467 5.78889 110.341 5.91449C110.214 6.0396 110.041 6.10313 109.825 6.10313H107.856V12.1505C107.856 12.3724 107.792 12.5557 107.667 12.6969C107.541 12.8387 107.359 12.9105 107.127 12.9105C106.894 12.9105 106.712 12.8387 106.585 12.6964C106.461 12.5557 106.397 12.3719 106.397 12.1505V6.10313H104.429C104.22 6.10313 104.05 6.0396 103.924 5.91449C103.797 5.78889 103.733 5.62419 103.733 5.42479C103.733 5.21708 103.798 5.0519 103.925 4.93411C104.051 4.81731 104.22 4.75818 104.429 4.75818H109.825C110.04 4.75818 110.213 4.81731 110.339 4.93411C110.466 5.0519 110.531 5.21708 110.531 5.42479ZM116.506 11.5658C116.714 11.5658 116.884 11.6269 117.01 11.7481C117.137 11.8698 117.201 12.037 117.201 12.2442C117.201 12.4436 117.137 12.6068 117.01 12.7285C116.884 12.8492 116.714 12.9108 116.506 12.9108H112.556C112.324 12.9108 112.138 12.837 112.004 12.6909C111.871 12.5467 111.804 12.361 111.804 12.1391V5.52967C111.804 5.30828 111.869 5.12256 111.998 4.9779C112.128 4.83226 112.312 4.75798 112.545 4.75798H116.392C116.601 4.75798 116.771 4.81956 116.896 4.94027C117.023 5.06196 117.087 5.22862 117.087 5.43632C117.087 5.63621 117.023 5.79895 116.896 5.92064C116.771 6.04185 116.601 6.10294 116.392 6.10294H113.263V8.05097H115.755C115.971 8.05097 116.144 8.11011 116.27 8.22691C116.397 8.34469 116.461 8.50988 116.461 8.71759C116.461 8.91698 116.397 9.08168 116.271 9.20728C116.145 9.3324 115.971 9.39593 115.755 9.39593H113.263V11.5658H116.506ZM124.532 5.42479C124.532 5.62419 124.468 5.78889 124.342 5.91449C124.215 6.0396 124.042 6.10313 123.826 6.10313H121.857V12.1505C121.857 12.3724 121.794 12.5557 121.669 12.6969C121.542 12.8387 121.36 12.9105 121.128 12.9105C120.895 12.9105 120.713 12.8387 120.587 12.6964C120.462 12.5557 120.398 12.3719 120.398 12.1505V6.10313H118.43C118.221 6.10313 118.051 6.0396 117.925 5.91449C117.799 5.78889 117.734 5.62419 117.734 5.42479C117.734 5.21708 117.799 5.0519 117.926 4.93411C118.053 4.81731 118.222 4.75818 118.43 4.75818H123.826C124.041 4.75818 124.215 4.81731 124.34 4.93411C124.468 5.0519 124.532 5.21708 124.532 5.42479ZM135.437 12.1507C135.437 12.3721 135.376 12.5554 135.255 12.6962C135.132 12.8384 134.952 12.9107 134.719 12.9107C134.478 12.9107 134.292 12.8364 134.166 12.6903C134.041 12.5461 133.978 12.3643 133.978 12.1507V7.41554L130.363 12.4826C130.149 12.767 129.922 12.9107 129.688 12.9107C129.47 12.9107 129.298 12.8428 129.175 12.7089C129.054 12.5754 128.992 12.3878 128.992 12.1507V5.53006C128.992 5.30916 129.053 5.12393 129.174 4.97927C129.297 4.83266 129.481 4.75837 129.722 4.75837C129.955 4.75837 130.137 4.83217 130.263 4.97878C130.388 5.12344 130.451 5.30867 130.451 5.53006V10.275L134.044 5.17476C134.242 4.89814 134.477 4.75837 134.742 4.75837C135.203 4.75837 135.437 5.01788 135.437 5.53006V12.1507ZM142.801 4.75818C143.017 4.75818 143.19 4.81731 143.316 4.93411C143.443 5.0519 143.507 5.21708 143.507 5.42479C143.507 5.62419 143.444 5.78889 143.317 5.91449C143.191 6.0396 143.017 6.10313 142.801 6.10313H140.833V12.1505C140.833 12.3724 140.769 12.5557 140.644 12.6969C140.518 12.8387 140.336 12.9105 140.103 12.9105C139.87 12.9105 139.688 12.8387 139.562 12.6964C139.437 12.5557 139.374 12.3719 139.374 12.1505V6.10313H137.405C137.196 6.10313 137.027 6.0396 136.9 5.91449C136.774 5.78889 136.71 5.62419 136.71 5.42479C136.71 5.21708 136.775 5.0519 136.901 4.93411C137.028 4.81731 137.197 4.75818 137.405 4.75818H142.801ZM151.349 4.75818C151.568 4.75818 151.739 4.83051 151.857 4.97321C151.975 5.11396 152.034 5.30114 152.034 5.52986V12.1505C152.034 12.3724 151.97 12.5562 151.845 12.6969C151.719 12.8387 151.537 12.9105 151.304 12.9105C151.079 12.9105 150.899 12.8392 150.769 12.6969C150.64 12.5562 150.574 12.3724 150.574 12.1505V7.56636L148.999 10.1791C148.823 10.4728 148.6 10.6218 148.333 10.6218C148.059 10.6218 147.832 10.4772 147.656 10.1908L146.057 7.62012V12.1505C146.057 12.6549 145.827 12.9105 145.374 12.9105C144.92 12.9105 144.69 12.6549 144.69 12.1505V5.54159C144.69 5.28062 144.753 5.08268 144.879 4.95317C145.006 4.82366 145.172 4.75818 145.374 4.75818C145.678 4.75818 145.929 4.91896 146.119 5.23663L148.401 8.93135L150.638 5.22441C150.829 4.91505 151.068 4.75818 151.349 4.75818ZM160.343 5.82569C161 6.60959 161.333 7.62173 161.333 8.83473C161.333 10.0551 161 11.0692 160.343 11.8492C159.684 12.6311 158.742 13.0279 157.542 13.0279C156.342 13.0279 155.401 12.6311 154.746 11.8492C154.093 11.0692 153.762 10.0551 153.762 8.83473C153.762 7.62173 154.093 6.60959 154.746 5.82569C155.401 5.04031 156.341 4.64152 157.542 4.64152C158.742 4.64152 159.684 5.04031 160.343 5.82569ZM159.218 10.8903C159.608 10.36 159.806 9.66849 159.806 8.83473C159.806 8.00049 159.608 7.30895 159.218 6.77869C158.831 6.25283 158.267 5.98647 157.542 5.98647C156.824 5.98647 156.264 6.25283 155.877 6.77869C155.487 7.30944 155.289 8.00098 155.289 8.83473C155.289 9.66849 155.487 10.36 155.877 10.8903C156.264 11.4162 156.824 11.6825 157.542 11.6825C158.267 11.6825 158.831 11.4162 159.218 10.8903Z" fill="white"></path>
    </symbol>
    <symbol fill="none" xmlns="http://www.w3.org/2000/svg" viewBox="0 0 965 465" id="lamoda">
        <path d="M474.265 188.489C471.989 193.161 470.073 197.653 468.515 201.966C466.958 206.278 465.7 210.411 464.742 214.364C463.784 218.317 463.095 222.121 462.676 225.774C462.316 229.428 462.136 232.902 462.136 236.196C462.136 242.665 462.825 248.595 464.203 253.985C465.64 259.316 467.467 264.197 469.683 268.63C471.899 273.002 474.385 276.955 477.14 280.489C479.955 284.023 482.741 287.168 485.496 289.923C483.1 289.923 480.884 289.803 478.847 289.563C476.871 289.324 474.685 289.204 472.289 289.204C469.713 289.204 467.198 289.384 464.742 289.743C462.286 290.043 459.771 290.492 457.195 291.091C454.679 291.75 452.044 292.558 449.289 293.516C446.534 294.475 443.569 295.613 440.394 296.931C437.639 289.803 435.423 282.675 433.746 275.548C432.069 268.42 430.871 261.293 430.152 254.165C427.157 260.095 424.642 266.294 422.605 272.763C420.569 279.231 419.101 286.179 418.203 293.606C417.484 293.606 415.957 293.636 413.621 293.696C411.345 293.756 408.53 293.906 405.176 294.145C401.881 294.445 398.258 294.894 394.304 295.493C390.351 296.152 386.398 297.05 382.445 298.188C381.607 290.162 380.199 282.615 378.222 275.548C376.246 268.42 373.73 261.682 370.676 255.333C369.957 262.221 368.729 269.139 366.992 276.087C365.255 283.035 363.039 289.983 360.344 296.931C348.005 291.78 335.696 289.204 323.418 289.204C321.561 289.204 319.345 289.324 316.769 289.563C314.194 289.743 311.618 289.923 309.043 290.102C318.446 281.058 325.574 270.936 330.426 259.735C335.337 248.475 337.793 235.957 337.793 222.181C337.793 220.623 337.733 218.976 337.613 217.239C337.493 215.442 337.344 213.585 337.164 211.669C332.672 207.416 327.88 203.253 322.789 199.181C317.758 195.108 312.427 190.945 306.797 186.692C309.312 187.171 312.666 187.83 316.859 188.669C321.112 189.447 326.173 189.837 332.043 189.837C337.134 189.837 342.764 189.328 348.933 188.309C355.103 187.291 361.631 185.345 368.519 182.47C372.472 187.92 376.396 194.209 380.289 201.337C383.643 207.446 387.147 214.783 390.801 223.349C394.514 231.854 397.868 241.407 400.863 252.009L407.152 236.376C409.189 231.285 411.135 226.373 412.992 221.641C414.909 216.91 416.676 212.268 418.293 207.716C419.97 203.104 421.467 198.492 422.785 193.88C424.163 189.208 425.39 184.356 426.469 179.325C430.781 181.601 435.183 183.368 439.676 184.626C444.168 185.884 448.51 186.812 452.703 187.411C456.955 187.95 460.939 188.28 464.652 188.399C468.366 188.459 471.57 188.489 474.265 188.489ZM603.91 186.692C601.814 188.369 599.837 190.136 597.98 191.993C596.123 193.79 594.357 195.707 592.679 197.743C598.31 198.821 603.64 200.558 608.672 202.954C613.703 205.29 618.075 208.255 621.789 211.849C625.502 215.442 628.437 219.635 630.594 224.427C632.81 229.158 633.918 234.429 633.918 240.239C633.918 246.828 632.81 252.787 630.594 258.118C628.437 263.389 625.413 268.121 621.519 272.313C617.686 276.446 613.134 280.04 607.863 283.095C602.592 286.089 596.872 288.575 590.703 290.552C584.534 292.468 578.035 293.906 571.207 294.864C564.379 295.822 557.491 296.302 550.543 296.302C548.087 296.302 545.541 296.242 542.906 296.122C540.271 296.062 537.695 295.942 535.179 295.763C532.724 295.583 530.418 295.313 528.261 294.954C526.165 294.655 524.398 294.265 522.961 293.786C524.638 292.408 526.225 291.031 527.722 289.653C529.28 288.216 530.687 286.778 531.945 285.341C526.255 284.263 520.894 282.645 515.863 280.489C510.892 278.333 506.519 275.578 502.746 272.224C498.972 268.809 495.978 264.826 493.761 260.274C491.605 255.662 490.527 250.391 490.527 244.462C490.527 237.514 491.785 231.255 494.301 225.684C496.876 220.054 500.38 215.053 504.812 210.681C509.245 206.308 514.455 202.565 520.445 199.45C526.435 196.335 532.873 193.76 539.761 191.724C546.649 189.687 553.807 188.19 561.234 187.231C568.721 186.273 576.148 185.794 583.515 185.794C586.57 185.794 589.685 185.884 592.859 186.063C596.094 186.183 599.478 186.393 603.011 186.692L603.91 186.692ZM594.926 233.95C594.926 228.859 593.817 224.696 591.601 221.462C589.445 218.227 586.57 215.652 582.976 213.735C582.317 215.293 581.689 216.91 581.09 218.587C580.491 220.204 579.952 221.881 579.472 223.618C575.28 222.42 571.746 221.612 568.871 221.192C566.056 220.773 563.69 220.563 561.773 220.563C558 220.563 554.196 221.192 550.363 222.45C546.53 223.708 543.086 225.535 540.031 227.931C536.976 230.266 534.461 233.141 532.484 236.556C530.567 239.91 529.609 243.713 529.609 247.966C529.609 252.039 530.627 255.782 532.664 259.196C534.76 262.55 537.485 265.665 540.84 268.54C541.379 266.683 541.768 264.796 542.008 262.88C542.307 260.963 542.517 258.987 542.636 256.95C547.069 258.987 550.992 260.394 554.406 261.173C557.82 261.951 560.815 262.341 563.39 262.341C567.344 262.341 571.207 261.712 574.98 260.454C578.754 259.136 582.108 257.25 585.043 254.794C588.038 252.338 590.433 249.373 592.23 245.899C594.027 242.365 594.926 238.382 594.926 233.95ZM778.926 231.524C779.045 232.543 779.135 233.561 779.195 234.579C779.255 235.597 779.285 236.615 779.285 237.634C779.285 242.964 778.357 248.115 776.5 253.087C774.703 258.058 772.157 262.73 768.863 267.102C765.569 271.475 761.646 275.488 757.094 279.141C752.541 282.735 747.57 285.85 742.179 288.485C736.789 291.061 731.039 293.067 724.929 294.505C718.82 295.942 712.591 296.661 706.242 296.661C701.57 296.661 696.838 296.182 692.047 295.224C687.315 294.265 682.703 292.498 678.211 289.923C673.539 290.462 668.597 291.39 663.386 292.708C658.176 294.026 652.695 295.553 646.945 297.29C651.677 284.592 655.42 271.834 658.176 259.016C660.931 246.139 662.398 233.112 662.578 219.934C658.685 221.671 654.821 223.828 650.988 226.403C651.288 224.307 651.527 222.48 651.707 220.923C651.886 219.365 651.976 218.078 651.976 217.059C651.976 205.02 648.472 194.599 641.465 185.794C643.501 185.195 645.867 184.656 648.562 184.177C651.317 183.697 654.252 183.248 657.367 182.829C660.482 182.41 663.656 182.05 666.89 181.751C670.185 181.451 673.359 181.212 676.414 181.032C679.528 180.793 682.433 180.643 685.129 180.583C687.824 180.463 690.13 180.403 692.047 180.403C704.086 180.403 715.017 181.691 724.84 184.266C734.722 186.842 743.168 190.376 750.176 194.868C757.183 199.3 762.574 204.511 766.347 210.501C770.181 216.431 772.097 222.78 772.097 229.548C772.097 230.266 772.067 230.955 772.008 231.614C771.948 232.273 771.918 232.932 771.918 233.591C774.254 233.052 776.59 232.363 778.926 231.524ZM739.125 237.454C737.747 233.082 735.561 229.428 732.566 226.493C729.571 223.498 726.217 221.072 722.504 219.216C718.79 217.359 714.927 215.981 710.914 215.083C706.961 214.125 703.307 213.496 699.953 213.196C699.594 224.816 699.414 236.406 699.414 247.966C699.414 253.117 699.444 258.298 699.504 263.509C699.623 268.66 699.773 273.841 699.953 279.052C704.625 277.554 708.997 275.578 713.07 273.122C717.143 270.666 720.587 267.701 723.402 264.227C726.277 260.753 728.403 256.8 729.781 252.368C731.159 247.936 731.518 243.024 730.859 237.634C732.057 237.634 733.345 237.634 734.722 237.634C736.16 237.634 737.627 237.574 739.125 237.454ZM928.156 257.13C925.64 258.328 923.155 259.496 920.699 260.634C918.243 261.712 915.758 262.76 913.242 263.778C918.752 273.721 924.832 283.095 931.48 291.899C922.196 291.899 913.332 292.798 904.886 294.595C896.441 296.451 887.876 299.296 879.191 303.13C879.85 301.572 880.239 299.955 880.359 298.278C880.539 296.661 880.629 294.984 880.629 293.247C880.629 290.372 880.359 287.227 879.82 283.813C879.281 280.339 878.472 276.716 877.394 272.942C874.879 273.302 872.363 273.571 869.847 273.751C867.332 273.871 864.876 273.931 862.48 273.931C858.228 273.931 854.035 273.691 849.902 273.212C845.829 272.673 841.906 271.804 838.133 270.606C837.114 275.039 836.186 279.591 835.347 284.263C834.509 288.875 833.67 293.636 832.832 298.548C829.777 296.99 826.423 295.583 822.769 294.325C819.655 293.307 816.031 292.349 811.898 291.45C807.825 290.552 803.513 290.102 798.961 290.102C795.067 290.102 790.935 290.432 786.562 291.091C782.19 291.75 777.368 292.828 772.097 294.325C776.17 290.312 779.974 286.239 783.508 282.106C787.101 277.914 790.366 273.901 793.301 270.067C796.295 266.174 798.931 262.55 801.207 259.196C803.543 255.782 805.489 252.817 807.047 250.302C805.31 248.205 803.692 245.959 802.195 243.563C800.758 241.168 799.38 238.592 798.062 235.837C800.458 237.035 802.824 238.143 805.16 239.161C807.496 240.119 809.802 241.018 812.078 241.856C814.833 237.005 817.738 232.123 820.793 227.212C823.847 222.3 827.112 217.509 830.586 212.837C829.867 211.1 828.939 209.123 827.801 206.907C826.722 204.691 825.524 202.415 824.207 200.079C822.949 197.683 821.601 195.317 820.164 192.981C818.726 190.645 817.319 188.489 815.941 186.513C821.691 188.07 827.441 189.298 833.191 190.196C839.001 191.095 844.781 191.694 850.531 191.993C853.825 189.298 857.269 186.842 860.863 184.626C864.457 182.35 868.23 180.343 872.183 178.606C870.926 180.703 869.698 182.859 868.5 185.075C867.302 187.291 866.134 189.537 864.996 191.813C867.991 191.514 871.015 191.184 874.07 190.825C877.125 190.406 880.299 189.867 883.594 189.208C885.81 197.294 888.235 205.17 890.871 212.837C893.506 220.503 896.351 228.05 899.406 235.477C902.041 233.98 904.647 232.453 907.222 230.895C909.858 229.278 912.463 227.541 915.039 225.684C916.896 231.974 918.902 237.753 921.058 243.024C923.215 248.295 925.58 252.997 928.156 257.13ZM867.961 247.606C865.864 242.934 863.558 238.233 861.043 233.501C858.587 228.709 855.922 223.888 853.047 219.036C849.513 228.5 846.278 238.562 843.344 249.224C844.422 249.343 845.47 249.403 846.488 249.403C847.566 249.403 848.644 249.403 849.722 249.403C852.777 249.403 855.802 249.283 858.797 249.044C861.851 248.744 864.906 248.265 867.961 247.606Z" fill="black"></path>
        <path d="M137.053 284.639C127.855 280.831 118.988 277.395 110.453 274.332C101.934 271.211 93.3762 268.452 84.7795 266.055C74.8558 263.289 64.7619 260.91 54.4976 258.919C44.2911 256.944 33.5888 255.298 22.391 253.979C25.396 253.014 28.3931 252.077 31.382 251.169C34.3871 250.204 37.4257 249.341 40.4979 248.581C43.405 242.614 45.9707 236.645 48.1949 230.674C50.4928 224.661 52.4943 218.597 54.1992 212.481C56.7566 203.307 58.6968 194.117 60.0199 184.91C61.359 175.646 62.2655 166.261 62.7392 156.755L71.0474 159.071C77.3939 160.84 83.837 162.263 90.3765 163.34C96.9738 164.433 104.108 165.272 111.78 165.856C108.097 179.068 103.724 191.964 98.6631 204.544C93.6178 217.065 87.6253 229.416 80.6855 241.597C90.9973 240.74 101.44 240.418 112.014 240.63C122.645 240.858 133.638 241.684 144.993 243.109C144.061 245.336 143.179 247.608 142.346 249.926C141.572 252.259 140.846 254.637 140.171 257.06C138.884 261.676 137.939 266.294 137.335 270.913C136.805 275.491 136.711 280.066 137.053 284.639ZM279.273 215.441C276.803 216.493 274.425 217.664 272.138 218.954C269.867 220.187 267.65 221.558 265.488 223.07C270.622 225.62 275.29 228.725 279.493 232.384C283.712 235.985 287.128 240.015 289.74 244.474C292.352 248.933 294.053 253.76 294.844 258.954C295.708 264.108 295.36 269.482 293.799 275.079C292.03 281.425 289.362 286.869 285.796 291.408C282.304 295.907 278.119 299.652 273.243 302.646C268.441 305.597 263.091 307.836 257.193 309.364C251.312 310.833 245.135 311.691 238.661 311.939C232.204 312.128 225.558 311.768 218.723 310.857C211.888 309.947 205.125 308.559 198.432 306.693C196.066 306.033 193.63 305.292 191.124 304.469C188.601 303.704 186.153 302.897 183.778 302.048C181.46 301.215 179.312 300.337 177.331 299.411C175.392 298.56 173.795 297.71 172.539 296.863C174.524 295.986 176.423 295.085 178.235 294.16C180.121 293.194 181.863 292.187 183.461 291.14C178.269 288.574 173.54 285.576 169.272 282.148C165.063 278.736 161.591 274.908 158.857 270.664C156.139 266.362 154.323 261.721 153.411 256.741C152.572 251.719 152.949 246.353 154.542 240.641C156.407 233.948 159.3 228.257 163.219 223.566C167.212 218.835 171.93 214.958 177.374 211.936C182.817 208.915 188.842 206.708 195.448 205.316C202.054 203.925 208.948 203.173 216.13 203.061C223.312 202.949 230.608 203.428 238.02 204.5C245.489 205.587 252.772 207.12 259.869 209.098C262.811 209.919 265.788 210.842 268.797 211.867C271.881 212.851 275.084 213.962 278.408 215.199L279.273 215.441ZM257.928 258.55C259.295 253.646 259.346 249.338 258.08 245.628C256.871 241.933 254.793 238.68 251.846 235.869C250.794 237.192 249.753 238.581 248.726 240.035C247.715 241.432 246.745 242.903 245.817 244.448C242.1 242.168 238.913 240.44 236.257 239.264C233.657 238.104 231.435 237.267 229.588 236.752C225.954 235.739 222.121 235.323 218.091 235.506C214.06 235.688 210.252 236.523 206.667 238.01C203.097 239.44 199.901 241.534 197.081 244.292C194.334 247.008 192.389 250.414 191.247 254.511C190.154 258.434 190.129 262.314 191.174 266.149C192.293 269.943 194.081 273.675 196.54 277.345C197.558 275.701 198.44 273.988 199.185 272.207C199.989 270.441 200.721 268.593 201.383 266.664C205.106 269.815 208.507 272.225 211.587 273.892C214.666 275.559 217.447 276.738 219.927 277.429C223.735 278.491 227.626 278.923 231.598 278.724C235.587 278.468 239.325 277.552 242.811 275.974C246.355 274.413 249.459 272.2 252.123 269.336C254.803 266.415 256.738 262.819 257.928 258.55Z" fill="black"></path>
    </symbol>
    <symbol version="1.0" xmlns="http://www.w3.org/2000/svg" preserveAspectRatio="xMidYMid meet" viewBox="0 0 165.000000 62.000000" id="skm">
        <g transform="translate(0.000000,62.000000) scale(0.100000,-0.100000)" fill="#000000" stroke="none">
            <path d="M352 512 l-2 -73 -50 27 -50 27 -43 -23 c-115 -64 -147 -90 -147
-117 0 -21 3 -24 12 -15 24 24 28 10 28 -88 l0 -100 150 0 150 0 1 -37 2 -38
6 35 6 35 150 5 150 6 -152 2 c-189 2 -206 20 -25 25 l127 3 -127 2 -128 2 0
75 c0 48 4 75 11 75 6 0 54 -25 106 -56 52 -31 97 -53 99 -51 3 3 -45 33 -105
68 -100 57 -128 79 -102 79 5 0 52 -25 105 -56 53 -31 99 -55 101 -52 3 2 -45
32 -105 67 l-110 62 -2 42 -1 42 -4 -38 c-4 -33 -6 -36 -23 -27 -16 8 -20 24
-23 88 l-3 77 -2 -73z m-2 -100 c0 -9 -17 -4 -50 15 -27 15 -50 34 -50 40 0 8
18 3 50 -15 27 -15 50 -33 50 -40z m-49 1 l49 -26 0 -99 0 -98 -35 0 c-34 0
-35 1 -35 40 0 38 -2 40 -30 40 -28 0 -30 -2 -30 -40 l0 -40 -40 0 -40 0 0 94
0 94 48 30 c26 17 51 31 56 31 4 1 30 -11 57 -26z m83 -9 c9 -3 16 -13 16 -20
0 -12 -4 -12 -20 -4 -11 6 -20 15 -20 20 0 12 3 12 24 4z m16 -129 c0 -78 -2
-85 -20 -85 -19 0 -20 7 -20 95 0 93 1 95 20 85 18 -9 20 -21 20 -95z m-50
-105 c0 -5 -16 -10 -35 -10 -19 0 -35 5 -35 10 0 6 16 10 35 10 19 0 35 -4 35
-10z m50 0 c0 -5 -9 -10 -20 -10 -11 0 -20 5 -20 10 0 6 9 10 20 10 11 0 20
-4 20 -10z"></path>
            <path d="M837 355 c-51 -17 -65 -31 -78 -74 -23 -77 35 -146 122 -146 69 0
138 54 89 70 -14 4 -28 1 -39 -9 -25 -23 -84 -21 -106 4 -62 68 34 158 106
101 19 -15 28 -16 40 -7 21 15 13 33 -19 50 -45 22 -75 25 -115 11z"></path>
            <path d="M1030 250 l0 -110 25 0 c23 0 25 4 25 45 0 44 1 45 33 45 27 -1 36
-7 59 -45 21 -34 33 -45 53 -45 14 0 25 3 25 7 0 3 -14 28 -31 55 -34 53 -34
57 11 126 l22 32 -29 0 c-22 0 -33 -8 -53 -40 -21 -33 -30 -40 -57 -40 -32 0
-33 2 -33 40 0 36 -2 40 -25 40 l-25 0 0 -110z"></path>
            <path d="M1290 250 l0 -110 25 0 c24 0 25 2 26 73 l1 72 34 -72 c28 -60 39
-73 58 -73 19 0 29 14 59 78 l37 77 0 -77 c0 -76 0 -78 25 -78 l25 0 0 110 0
110 -33 0 c-31 0 -35 -4 -72 -81 l-40 -80 -40 80 c-37 77 -41 81 -72 81 l-33
0 0 -110z"></path>
        </g>
    </symbol>
    <symbol fill="none" xmlns="http://www.w3.org/2000/svg" viewBox="0 0 129 20" id="wildberries">
        <path d="M6.10547 19L2.14453 4.17578L0.398438 4V1.9375H7.26562V4L5.42578 4.26953L7.42969 12.5664L7.79297 14.0898H7.86328L8.29688 12.5664L11.6719 1.9375H14.1914L17.6953 12.8594L18.1055 14.207H18.1758L18.5273 12.8594L20.6016 4.26953L18.6562 4V1.9375H25.3945V4L23.7656 4.17578L19.7578 19H16.6641L13.4297 9.02734L13.0195 7.62109H12.9492L12.4922 9.07422L9.22266 19H6.10547Z" fill="#262D33"></path>
        <path d="M26.4375 19V16.9492L28.0898 16.5977V8.73438L26.2617 8.38281V6.32031H31.5117V16.5977L33.1523 16.9492V19H26.4375ZM27.9727 3.63672V0.71875H31.5117V3.63672H27.9727Z" fill="#262D33"></path>
        <path d="M34.1133 19V16.9492L35.7656 16.5977V3.13281L33.9375 2.78125V0.71875H39.1875V16.5977L40.8398 16.9492V19H34.1133Z" fill="#262D33"></path>
        <path d="M41.7773 19V16.9492L43.4297 16.5977V3.13281L41.6016 2.78125V0.71875H46.8516V16.5977L48.5039 16.9492V19H41.7773Z" fill="#262D33"></path>
        <path d="M57.0586 19.2461C56.2695 19.2461 55.5977 19.0938 55.043 18.7891C54.4883 18.4766 54.0234 18.0273 53.6484 17.4414L53.4023 19H50.4492V3.13281L48.6328 2.78125V0.71875H53.8594V7.66797C54.2266 7.16016 54.6758 6.76953 55.207 6.49609C55.7461 6.22266 56.3711 6.08594 57.082 6.08594C58.6211 6.08594 59.8047 6.69531 60.6328 7.91406C61.4688 9.125 61.8867 10.7422 61.8867 12.7656V13.0117C61.8867 14.9023 61.4688 16.4141 60.6328 17.5469C59.7969 18.6797 58.6055 19.2461 57.0586 19.2461ZM56.0156 16.5859C56.8906 16.5859 57.5195 16.2773 57.9023 15.6602C58.2852 15.0352 58.4766 14.1523 58.4766 13.0117V12.7656C58.4766 11.5312 58.2812 10.5547 57.8906 9.83594C57.5078 9.10938 56.8945 8.74609 56.0508 8.74609C55.5352 8.74609 55.0938 8.86719 54.7266 9.10938C54.3594 9.35156 54.0703 9.67969 53.8594 10.0938V15.3906C54.3359 16.1875 55.0547 16.5859 56.0156 16.5859Z" fill="#262D33"></path>
        <path d="M69.7148 19.2461C68.4961 19.2461 67.4336 18.9805 66.5273 18.4492C65.6289 17.9102 64.9297 17.1719 64.4297 16.2344C63.9375 15.2969 63.6914 14.2266 63.6914 13.0234V12.5547C63.6914 11.2969 63.9258 10.1836 64.3945 9.21484C64.8633 8.23828 65.5234 7.47266 66.375 6.91797C67.2344 6.35547 68.2461 6.07812 69.4102 6.08594C71.1211 6.08594 72.4297 6.58984 73.3359 7.59766C74.2422 8.59766 74.6953 10.0039 74.6953 11.8164V13.6797H67.2422L67.2188 13.75C67.2812 14.5859 67.5586 15.2734 68.0508 15.8125C68.543 16.3516 69.2422 16.6211 70.1484 16.6211C70.7734 16.6211 71.3555 16.543 71.8945 16.3867C72.4414 16.2227 72.9727 15.9844 73.4883 15.6719L74.4141 17.7812C73.8906 18.2031 73.2305 18.5547 72.4336 18.8359C71.6445 19.1094 70.7383 19.2461 69.7148 19.2461ZM67.2656 11.418H71.4961V11.1133C71.4961 10.3477 71.3359 9.74219 71.0156 9.29688C70.7031 8.84375 70.1875 8.61719 69.4688 8.61719C68.7812 8.61719 68.2578 8.87891 67.8984 9.40234C67.5391 9.91797 67.3164 10.5703 67.2305 11.3594L67.2656 11.418Z" fill="#262D33"></path>
        <path d="M76.5352 19V16.9492L78.1758 16.5977V8.73438L76.3594 8.38281V6.32031H81.3633L81.4922 7.89062L81.5156 8.17188C82.1406 6.78125 83.0781 6.08594 84.3281 6.08594C84.5312 6.08594 84.75 6.10156 84.9844 6.13281C85.2266 6.16406 85.4453 6.21094 85.6406 6.27344L85.2773 9.42578L83.5781 9.33203C83.0938 9.30859 82.6992 9.39062 82.3945 9.57812C82.0977 9.76562 81.832 10.0352 81.5977 10.3867V16.5977L83.2383 16.9492V19H76.5352Z" fill="#262D33"></path>
        <path d="M86.918 19V16.9492L88.5586 16.5977V8.73438L86.7422 8.38281V6.32031H91.7461L91.875 7.89062L91.8984 8.17188C92.5234 6.78125 93.4609 6.08594 94.7109 6.08594C94.9141 6.08594 95.1328 6.10156 95.3672 6.13281C95.6094 6.16406 95.8281 6.21094 96.0234 6.27344L95.6602 9.42578L93.9609 9.33203C93.4766 9.30859 93.082 9.39062 92.7773 9.57812C92.4805 9.76562 92.2148 10.0352 91.9805 10.3867V16.5977L93.6211 16.9492V19H86.918Z" fill="#262D33"></path>
        <path d="M97.1016 19V16.9492L98.7539 16.5977V8.73438L96.9258 8.38281V6.32031H102.176V16.5977L103.816 16.9492V19H97.1016ZM98.6367 3.63672V0.71875H102.176V3.63672H98.6367Z" fill="#262D33"></path>
        <path d="M111.035 19.2461C109.816 19.2461 108.754 18.9805 107.848 18.4492C106.949 17.9102 106.25 17.1719 105.75 16.2344C105.258 15.2969 105.012 14.2266 105.012 13.0234V12.5547C105.012 11.2969 105.246 10.1836 105.715 9.21484C106.184 8.23828 106.844 7.47266 107.695 6.91797C108.555 6.35547 109.566 6.07812 110.73 6.08594C112.441 6.08594 113.75 6.58984 114.656 7.59766C115.562 8.59766 116.016 10.0039 116.016 11.8164V13.6797H108.562L108.539 13.75C108.602 14.5859 108.879 15.2734 109.371 15.8125C109.863 16.3516 110.562 16.6211 111.469 16.6211C112.094 16.6211 112.676 16.543 113.215 16.3867C113.762 16.2227 114.293 15.9844 114.809 15.6719L115.734 17.7812C115.211 18.2031 114.551 18.5547 113.754 18.8359C112.965 19.1094 112.059 19.2461 111.035 19.2461ZM108.586 11.418H112.816V11.1133C112.816 10.3477 112.656 9.74219 112.336 9.29688C112.023 8.84375 111.508 8.61719 110.789 8.61719C110.102 8.61719 109.578 8.87891 109.219 9.40234C108.859 9.91797 108.637 10.5703 108.551 11.3594L108.586 11.418Z" fill="#262D33"></path>
        <path d="M123.035 19.2461C122.09 19.2461 121.207 19.1562 120.387 18.9766C119.574 18.7969 118.793 18.5391 118.043 18.2031L118.008 14.6172H120.387L120.844 16.4453C121.109 16.5781 121.398 16.6836 121.711 16.7617C122.031 16.8398 122.395 16.8789 122.801 16.8789C123.566 16.8789 124.105 16.7539 124.418 16.5039C124.73 16.2539 124.887 15.9414 124.887 15.5664C124.887 15.2148 124.719 14.9062 124.383 14.6406C124.047 14.3672 123.387 14.1289 122.402 13.9258C120.895 13.6133 119.785 13.1289 119.074 12.4727C118.371 11.8164 118.02 10.9766 118.02 9.95312C118.02 9.25781 118.195 8.61719 118.547 8.03125C118.906 7.44531 119.449 6.98047 120.176 6.63672C120.91 6.28516 121.848 6.10938 122.988 6.10938C123.941 6.10938 124.812 6.20312 125.602 6.39062C126.398 6.57031 127.066 6.80859 127.605 7.10547L127.641 10.5742H125.273L124.91 8.91016C124.457 8.59766 123.887 8.44141 123.199 8.44141C122.605 8.44141 122.145 8.56641 121.816 8.81641C121.496 9.05859 121.336 9.36719 121.336 9.74219C121.336 10.0703 121.477 10.3672 121.758 10.6328C122.047 10.8906 122.676 11.1289 123.645 11.3477C125.215 11.707 126.359 12.1875 127.078 12.7891C127.797 13.3828 128.156 14.2188 128.156 15.2969C128.156 16.4766 127.727 17.4297 126.867 18.1562C126.016 18.8828 124.738 19.2461 123.035 19.2461Z" fill="#262D33"></path>
    </symbol>
</svg>