<svg width="52" height="53" viewBox="0 0 52 53" fill="none" xmlns="http://www.w3.org/2000/svg">
<path d="M51.4192 26.2485C51.4192 29.8605 51.3467 33.4829 51.4398 37.095C51.595 43.4887 47.5915 48.4293 42.4915 50.6297C40.4432 51.512 38.2914 51.979 36.0673 51.979C29.1051 51.9894 22.1327 52.0828 15.1705 51.9479C9.92565 51.8441 5.61181 49.6437 2.51868 45.3051C0.894522 43.0216 0.118652 40.4267 0.118652 37.6139C0.118652 30.1719 0.118652 22.7402 0.118652 15.2982C0.118652 9.22622 3.06696 4.98104 8.30149 2.22012C10.5774 1.02649 13.0498 0.517894 15.6257 0.507514C22.3809 0.507514 29.1465 0.465997 35.9018 0.528273C41.1466 0.569791 45.5226 2.5834 48.7502 6.8182C50.5502 9.18471 51.4192 11.9041 51.4192 14.8934C51.4192 18.6715 51.4192 22.46 51.4192 26.2485ZM3.93593 26.2485C3.93593 30.0577 3.93593 33.8566 3.93593 37.6658C3.93593 39.368 4.32904 40.9665 5.20836 42.4092C7.51528 46.1977 11.0015 48.0452 15.3257 48.1179C22.2671 48.2217 29.2189 48.1594 36.1707 48.1387C37.8776 48.1387 39.5328 47.7858 41.0742 47.0488C45.2743 45.0352 47.6226 41.828 47.6019 37.0119C47.5605 29.6425 47.5915 22.2731 47.5915 14.9038C47.5915 12.8175 47.0019 10.9077 45.7708 9.22622C43.3915 5.99823 40.1018 4.41017 36.1707 4.36866C29.2396 4.28562 22.3085 4.33752 15.3774 4.3479C13.8981 4.3479 12.4705 4.6489 11.0843 5.16787C7.27734 6.58985 3.73938 10.1915 3.9049 15.4954C4.02904 19.0867 3.93593 22.6676 3.93593 26.2485Z" fill="#212121"/>
<path d="M25.8258 37.2506C19.1534 37.2506 13.774 31.9156 13.7637 25.2728C13.7533 18.7338 19.1741 13.378 25.8052 13.378C32.4569 13.3676 37.857 18.713 37.8673 25.3039C37.8673 31.8845 32.4776 37.2403 25.8258 37.2506ZM25.8258 33.4103C30.3673 33.4103 34.05 29.7671 34.0397 25.2832C34.0294 20.8408 30.3466 17.208 25.8258 17.208C21.2844 17.208 17.581 20.8304 17.581 25.3039C17.5913 29.7878 21.2844 33.4206 25.8258 33.4103Z" fill="#212121"/>
<path d="M39.2639 9.74518C40.6605 9.74518 41.7985 10.9388 41.7985 12.4023C41.7881 13.8658 40.6398 15.0491 39.2432 15.0387C37.8673 15.0283 36.7397 13.8451 36.7397 12.4127C36.7293 10.9492 37.8673 9.74518 39.2639 9.74518Z" fill="#212121"/>
</svg>
