<svg width="57" height="33" viewBox="0 0 57 33" fill="none" xmlns="http://www.w3.org/2000/svg">
<path d="M56.2272 29.3384C56.1587 29.1899 56.0949 29.0666 56.0357 28.9679C55.0549 27.1887 53.1808 25.0048 50.4143 22.4157L50.3558 22.3564L50.3266 22.3273L50.297 22.2975H50.2673C49.0117 21.0919 48.2166 20.2813 47.8837 19.8662C47.2745 19.0756 47.138 18.2754 47.4709 17.4645C47.7062 16.8519 48.5898 15.5581 50.1198 13.5814C50.9246 12.5338 51.5619 11.6942 52.0326 11.0617C55.4273 6.51579 56.899 3.61092 56.4475 2.3459L56.2721 2.05028C56.1543 1.87231 55.8502 1.70949 55.3603 1.56101C54.8692 1.41284 54.2415 1.38833 53.4761 1.48708L45.0001 1.54606C44.8628 1.49705 44.6667 1.50162 44.4113 1.56101C44.1562 1.6204 44.0286 1.65021 44.0286 1.65021L43.881 1.72445L43.7639 1.81364C43.6658 1.87262 43.5579 1.97635 43.44 2.12463C43.3228 2.27238 43.2248 2.44579 43.1465 2.64338C42.2237 5.0348 41.1745 7.25821 39.9969 9.31352C39.2709 10.5391 38.6042 11.6012 37.9953 12.5005C37.3872 13.3995 36.877 14.0619 36.4653 14.4865C36.053 14.9114 35.6808 15.2519 35.3466 15.5091C35.0129 15.7664 34.7582 15.8751 34.5818 15.8354C34.4051 15.7956 34.2386 15.7561 34.081 15.7167C33.8065 15.5387 33.5856 15.2967 33.4192 14.9904C33.252 14.6841 33.1394 14.2985 33.0805 13.8341C33.022 13.3693 32.9873 12.9695 32.9775 12.6334C32.9683 12.2977 32.9725 11.8229 32.9924 11.2103C33.0128 10.5973 33.022 10.1826 33.022 9.96518C33.022 9.21404 33.0365 8.39884 33.0657 7.51936C33.0954 6.63988 33.1194 5.94304 33.1395 5.42968C33.1595 4.9158 33.1688 4.37213 33.1688 3.79896C33.1688 3.22579 33.1341 2.77629 33.0657 2.45004C32.9981 2.12421 32.8943 1.80793 32.7575 1.50131C32.6199 1.19499 32.4184 0.958044 32.1541 0.789831C31.8893 0.621827 31.56 0.488503 31.1682 0.389445C30.1282 0.15239 28.8039 0.0241544 27.1947 0.00421816C23.5454 -0.035239 21.2005 0.202127 20.1606 0.716004C19.7486 0.933123 19.3757 1.22978 19.0424 1.60504C18.6891 2.04 18.6398 2.27737 18.8949 2.31641C20.0723 2.49407 20.9058 2.91906 21.3964 3.59098L21.5732 3.94703C21.7107 4.20392 21.848 4.65871 21.9854 5.31079C22.1226 5.96287 22.2112 6.68421 22.2501 7.4744C22.3481 8.91739 22.3481 10.1526 22.2501 11.1802C22.1519 12.2081 22.0591 13.0084 21.9706 13.5815C21.882 14.1547 21.7497 14.6192 21.5732 14.9748C21.3964 15.3305 21.2788 15.548 21.2198 15.6269C21.1609 15.7058 21.1119 15.7555 21.0729 15.775C20.8179 15.8735 20.5527 15.9236 20.2781 15.9236C20.0032 15.9236 19.6698 15.7851 19.2775 15.5083C18.8853 15.2315 18.4782 14.8512 18.0563 14.3669C17.6343 13.8826 17.1585 13.2057 16.6286 12.3361C16.099 11.4666 15.5496 10.439 14.9806 9.25319L14.5098 8.39323C14.2155 7.84 13.8134 7.03445 13.3033 5.97731C12.7928 4.91975 12.3416 3.89677 11.9494 2.90858C11.7926 2.49355 11.557 2.17758 11.2431 1.96015L11.0958 1.87096C10.9979 1.79204 10.8407 1.70825 10.6251 1.61895C10.4091 1.52976 10.1838 1.46579 9.94811 1.42644L1.88396 1.48542C1.05991 1.48542 0.500781 1.67346 0.206374 2.04903L0.088549 2.22669C0.0296882 2.32565 0 2.48369 0 2.70122C0 2.91865 0.0588609 3.1855 0.176686 3.50147C1.3539 6.2884 2.6341 8.97616 4.01728 11.5652C5.40046 14.1542 6.60242 16.2397 7.62243 17.8199C8.64265 19.4012 9.68256 20.8936 10.7422 22.2964C11.8018 23.6997 12.5031 24.599 12.8463 24.9941C13.1899 25.3899 13.4598 25.6859 13.6559 25.8834L14.3918 26.5948C14.8627 27.0692 15.5542 27.6374 16.4666 28.2994C17.3792 28.9617 18.3895 29.6138 19.4981 30.2567C20.6069 30.8985 21.8968 31.4222 23.3685 31.8273C24.84 32.2327 26.2723 32.3954 27.6654 32.3169H31.0501C31.7365 32.2572 32.2566 32.0398 32.6101 31.6646L32.7272 31.516C32.8059 31.398 32.8796 31.2147 32.9477 30.9681C33.0165 30.7211 33.0507 30.449 33.0507 30.1529C33.0306 29.3032 33.0949 28.5375 33.2417 27.8557C33.3883 27.1741 33.5555 26.6602 33.7425 26.3142C33.9294 25.9684 34.1403 25.6766 34.3751 25.4401C34.6103 25.203 34.7779 25.0594 34.8763 25.01C34.974 24.9603 35.052 24.9265 35.1109 24.9063C35.5818 24.7482 36.1359 24.9013 36.7742 25.3661C37.412 25.8306 38.0102 26.4041 38.5697 27.0856C39.129 27.7678 39.8009 28.5332 40.5856 29.3829C41.3707 30.2329 42.0573 30.8647 42.6457 31.2804L43.2341 31.6361C43.627 31.8735 44.1372 32.0909 44.7652 32.2885C45.392 32.486 45.9413 32.5354 46.4129 32.4367L53.947 32.3183C54.6922 32.3183 55.272 32.194 55.6833 31.9474C56.0954 31.7004 56.3403 31.4282 56.4192 31.1322C56.498 30.8358 56.5022 30.4996 56.4342 30.1237C56.3644 29.7488 56.2956 29.4866 56.2272 29.3384Z" fill="#212121"/>
</svg>
